<svg width="960" height="500" xmlns="http://www.w3.org/2000/svg">
 <!-- Created with Method Draw - http://github.com/duopixel/Method-Draw/ -->
 <g>
  <title>background</title>
  <rect fill="#ffaaaa" id="canvas_background" height="502" width="962" y="-1" x="-1"/>
  <g display="none" overflow="visible" y="0" x="0" height="100%" width="100%" id="canvasGrid">
   <rect fill="url(#gridpattern)" stroke-width="0" y="0" x="0" height="100%" width="100%"/>
  </g>
 </g>
 <g>
  <title>Layer 1</title>
  <path id="svg_20" d="m305.337219,367.717074c0,0 -14.81482,7.40741 -29.01235,-21.60494c-14.19754,-29.01236 11.11111,-45.67903 -20.37038,-62.34571c-31.48149,-16.66668 -37.5309,-28.64198 -9.50619,-29.13581c28.02471,-0.49383 58.88892,113.08646 58.88892,113.08646z" stroke-width="1.5" fill="#966231"/>
  <path id="svg_6" d="m296.207478,368.805944c0,0 -16.66662,-124.99965 40.62489,-124.99965c57.2915,0 44.79154,122.91632 44.79154,123.95798c0,1.04167 -85.41643,1.04167 -85.41643,1.04167z" stroke-width="1.5" fill="#ffffff"/>
  <ellipse ry="47.91653" rx="51.041521" id="svg_7" cy="247.355746" cx="337.596144" stroke-width="1.5" fill="#ffffff"/>
  <path stroke="#000" id="svg_11" d="m326.095749,264.966855c11.14562,7.24489 9.50618,-18.17937 7.66976,-17.82292c-1.83642,0.35646 6.58952,24.77386 11.77472,11.1215" fill-opacity="null" stroke-opacity="null" stroke-width="1.5" fill="none"/>
  <path id="svg_15" d="m297.523812,222.127674c0,0 -13.33336,-25.11415 -9.40641,-28.3105c3.92695,-3.19635 29.04111,10.50228 29.04111,10.50228c0,0 -19.6347,17.80822 -19.6347,17.80822z" stroke-width="1.5" fill="#966231"/>
  <path transform="rotate(93.8227767944336 373.2555847167969,209.07237243652344) " id="svg_16" d="m368.503315,223.469364c0,0 -13.33336,-25.11415 -9.40641,-28.3105c3.92695,-3.19635 29.04111,10.50228 29.04111,10.50228c0,0 -19.6347,17.80822 -19.6347,17.80822z" stroke-width="1.5" fill="#966231"/>
  <path id="svg_17" d="m312.689413,255.205481c8.894482,-7.71316 13.303683,-30.76837 21.482954,-30.63329c8.179272,0.13508 18.553374,27.41852 25.309468,33.18655c6.756094,5.76803 26.843076,3.07297 28.441417,-12.74138c1.598331,-15.81435 -11.87963,-47.83659 -50.010604,-47.83659c-38.130964,0 -51.861548,35.15244 -52.198362,48.18306c-0.336814,13.03062 18.080645,17.55481 26.975127,9.84165z" stroke-width="1.5" fill="#966231"/>
  <path stroke="null" transform="rotate(41.54908752441406 334.2153930664063,245.08346557617185) " id="svg_19" d="m335.617158,240.714152c-1.799073,-0.237924 -5.285614,4.370302 -5.503036,4.370302c0.217422,0 -4.037419,6.97527 7.617081,3.360673c2.91117,-9.523405 -0.314972,-7.493059 -2.114045,-7.730975z" stroke-width="1.5" fill="#ffaaaa"/>
  <g id="svg_24">
   <ellipse ry="8.641978" rx="8.641978" id="svg_23" cy="239.629701" cx="359.040943" stroke-opacity="null" stroke-width="1.5" stroke="null" fill="#ffffff"/>
   <ellipse stroke="null" ry="5.864199" rx="6.172841" id="svg_21" cy="236.851919" cx="359.658223" stroke-opacity="null" stroke-width="1.5" fill="#000000"/>
  </g>
  <g id="svg_27">
   <ellipse ry="8.641978" rx="8.641978" id="svg_25" cy="239.012417" cx="311.510067" stroke-opacity="null" stroke-width="1.5" stroke="null" fill="#ffffff"/>
   <ellipse stroke="null" ry="5.864199" rx="6.172841" id="svg_26" cy="236.234635" cx="312.127347" stroke-opacity="null" stroke-width="1.5" fill="#000000"/>
  </g>
  <path stroke="null" id="svg_28" d="m642.37436,366.79024c0,0 21.79903,3.70371 25.76589,-21.60494c3.96687,-25.30865 2.47788,-55.55558 18.09094,-62.34571c15.61306,-6.79013 50.35707,-26.95287 5.71521,-28.68127c-44.64186,-1.72839 -49.57204,112.63192 -49.57204,112.63192z" stroke-width="1.5" fill="#ffd4aa"/>
  <path id="svg_29" d="m553.40512,368.18866c0,0 -19.67804,-124.99965 47.96522,-124.99965c67.64325,0 52.88473,119.2126 52.88473,123.95798c0,4.74537 -100.84995,1.04167 -100.84995,1.04167z" stroke-width="1.5" fill="#ffffff"/>
  <ellipse ry="47.461989" rx="56.041464" id="svg_30" cy="248.556622" cx="600.138352" stroke-width="1.5" fill="#ffffff"/>
  <path transform="rotate(16.32340431213379 599.135986328125,254.73771667480466) " stroke="#000" id="svg_31" d="m589.681883,262.27601c10.838229,6.609076 9.244004,-16.583941 7.458232,-16.258774c-1.785772,0.325177 6.407784,22.599696 11.449979,10.145473" fill-opacity="null" stroke-opacity="null" stroke-width="1.5" fill="none"/>
  <path id="svg_32" d="m559.994921,225.256586c0,0 -13.33336,-25.11415 -9.40641,-28.3105c3.92695,-3.19635 29.04111,10.50228 29.04111,10.50228c0,0 -19.6347,17.80822 -19.6347,17.80822z" stroke-width="1.5" fill="#ffd4aa"/>
  <path transform="rotate(95.55590057373047 639.6329956054688,210.67356872558588) " id="svg_33" d="m634.880761,225.070549c0,0 -13.33336,-25.11415 -9.40641,-28.3105c3.92695,-3.19635 29.04111,10.50228 29.04111,10.50228c0,0 -19.6347,17.80822 -19.6347,17.80822z" stroke-width="1.5" fill="#ffd4aa"/>
  <path stroke="#ffd4aa" id="svg_34" d="m577.83817,255.83226c6.62359,-7.90167 9.75571,-27.33136 22.37776,-26.8494c12.62206,0.48195 12.70291,19.40507 18.45561,26.61123c5.75269,7.20616 30.25213,13.41195 36.00218,-4.9408c5.75003,-18.35276 -7.42756,-50.99173 -48.34358,-50.99173c-40.91601,0 -65.88807,25.57333 -62.60645,49.15862c3.28163,23.58529 27.4909,14.91376 34.11448,7.01208z" stroke-width="1.5" fill="#ffd4aa"/>
  <path transform="rotate(37.674232482910156 598.6822509765623,246.22572326660162) " stroke="null" id="svg_35" d="m600.084002,241.856397c-1.79908,-0.23792 -5.28562,4.3703 -5.50304,4.3703c0.21742,0 -4.03742,6.97527 7.61708,3.36068c2.91117,-9.52341 -0.31497,-7.49306 -2.11404,-7.73098z" stroke-width="1.5" fill="#ffaaaa"/>
  <g id="svg_38">
   <ellipse ry="8.641978" rx="8.641978" id="svg_36" cy="239.012417" cx="623.855854" stroke-opacity="null" stroke-width="1.5" stroke="null" fill="#ffffff"/>
   <ellipse stroke="null" ry="5.864199" rx="6.172841" id="svg_37" cy="236.234635" cx="624.473134" stroke-opacity="null" stroke-width="1.5" fill="#000000"/>
  </g>
  <g id="svg_41">
   <ellipse ry="8.641978" rx="8.641978" id="svg_39" cy="238.395133" cx="576.324978" stroke-opacity="null" stroke-width="1.5" stroke="null" fill="#ffffff"/>
   <ellipse stroke="null" ry="5.864199" rx="6.172841" id="svg_40" cy="235.617351" cx="576.942258" stroke-opacity="null" stroke-width="1.5" fill="#000000"/>
  </g>
 </g>
</svg>