<svg width="499.99999999999994" height="499.99999999999994" xmlns="http://www.w3.org/2000/svg">
 <!-- Created with Method Draw - http://github.com/duopixel/Method-Draw/ -->
 <defs>
  <filter height="200%" width="200%" y="-50%" x="-50%" id="svg_27_blur">
   <feGaussianBlur stdDeviation="0.4" in="SourceGraphic"/>
  </filter>
  <filter id="svg_32_blur">
   <feGaussianBlur stdDeviation="0.4" in="SourceGraphic"/>
  </filter>
  <filter id="svg_31_blur">
   <feGaussianBlur stdDeviation="0.4" in="SourceGraphic"/>
  </filter>
  <filter height="200%" width="200%" y="-50%" x="-50%" id="svg_30_blur">
   <feGaussianBlur stdDeviation="0.4" in="SourceGraphic"/>
  </filter>
  <filter id="svg_39_blur">
   <feGaussianBlur stdDeviation="0.6" in="SourceGraphic"/>
  </filter>
  <filter id="svg_40_blur">
   <feGaussianBlur stdDeviation="0.4" in="SourceGraphic"/>
  </filter>
  <filter height="200%" width="200%" y="-50%" x="-50%" id="svg_41_blur">
   <feGaussianBlur stdDeviation="2.6" in="SourceGraphic"/>
  </filter>
  <filter id="svg_7_blur">
   <feGaussianBlur stdDeviation="0.4" in="SourceGraphic"/>
  </filter>
  <filter id="svg_11_blur">
   <feGaussianBlur stdDeviation="0.4" in="SourceGraphic"/>
  </filter>
  <filter id="svg_6_blur">
   <feGaussianBlur stdDeviation="0.4" in="SourceGraphic"/>
  </filter>
  <filter height="200%" width="200%" y="-50%" x="-50%" id="svg_8_blur">
   <feGaussianBlur stdDeviation="3.5" in="SourceGraphic"/>
  </filter>
  <filter height="200%" width="200%" y="-50%" x="-50%" id="svg_43_blur">
   <feGaussianBlur stdDeviation="3.5" in="SourceGraphic"/>
  </filter>
  <filter height="200%" width="200%" y="-50%" x="-50%" id="svg_42_blur">
   <feGaussianBlur stdDeviation="3.5" in="SourceGraphic"/>
  </filter>
  <filter id="svg_34_blur">
   <feGaussianBlur stdDeviation="0" in="SourceGraphic"/>
  </filter>
  <filter height="200%" width="200%" y="-50%" x="-50%" id="svg_13_blur">
   <feGaussianBlur stdDeviation="1" in="SourceGraphic"/>
  </filter>
  <filter id="svg_14_blur">
   <feGaussianBlur stdDeviation="0.7" in="SourceGraphic"/>
  </filter>
  <filter height="200%" width="200%" y="-50%" x="-50%" id="svg_44_blur">
   <feGaussianBlur stdDeviation="1.8" in="SourceGraphic"/>
  </filter>
  <filter id="svg_5_blur">
   <feGaussianBlur stdDeviation="0.4" in="SourceGraphic"/>
  </filter>
  <filter id="svg_45_blur">
   <feGaussianBlur stdDeviation="0.2" in="SourceGraphic"/>
  </filter>
  <filter height="200%" width="200%" y="-50%" x="-50%" id="svg_46_blur">
   <feGaussianBlur stdDeviation="0.3" in="SourceGraphic"/>
  </filter>
 </defs>
 <g>
  <title>Layer 1</title>
  <path id="svg_1" d="m86.454689,62.994016" opacity="0.5" stroke-width="1.5" stroke="#000" fill="#fff"/>
 </g>
 <g>
  <title>background</title>
  <rect stroke="#7f3f00" filter="url(#svg_34_blur)" rx="0.5" id="svg_34" height="147.298779" width="244.59706" y="105.583016" x="127.819494" stroke-width="7" fill="#ddffff"/>
  <rect stroke="#2d1600" filter="url(#svg_44_blur)" id="svg_44" height="140.98979" width="5.161212" y="109.511626" x="247.623791" stroke-width="NaN" fill="#2d1600"/>
  <path stroke="null" transform="rotate(128.90817260742188 306.687744140625,224.26654052734378) " id="svg_17" d="m306.075189,194.31992c2.30316,0 3.61926,60.090434 1.20642,59.892766c-2.41285,-0.197663 -3.50959,-59.892766 -1.20642,-59.892766z" stroke-opacity="null" stroke-width="null" fill="#ffffff"/>
  <path stroke="null" transform="rotate(128.90817260742188 193.6026153564453,215.85525512695315) " id="svg_18" d="m192.990093,185.908629c2.30316,0 3.61926,60.09044 1.20642,59.89277c-2.41285,-0.19766 -3.50959,-59.89277 -1.20642,-59.89277z" stroke-opacity="null" stroke-width="null" fill="#ffffff"/>
  <path stroke="null" transform="rotate(-50.90990447998047 197.5595855712891,193.05889892578125) " id="svg_19" d="m196.947073,144.752669c2.30316,0 3.61926,96.93052 1.20642,96.61166c-2.41285,-0.31884 -3.50959,-96.61166 -1.20642,-96.61166z" stroke-opacity="null" stroke-width="null" fill="#ffffff"/>
  <path stroke="null" transform="rotate(-50.90990447998047 310.6447143554688,201.47018432617188) " id="svg_16" d="m310.03217,153.163959c2.30316,0 3.61926,96.930514 1.20642,96.611659c-2.41285,-0.318846 -3.50959,-96.611659 -1.20642,-96.611659z" stroke-opacity="null" stroke-width="null" fill="#ffffff"/>
  <path stroke="null" filter="url(#svg_43_blur)" id="svg_43" d="m366.244285,113.646783c0,0 -121.19081,0 -121.19081,0c0,0 26.7825,40.703741 51.55631,55.284176c24.77382,14.580445 60.26063,26.123296 60.26519,25.733144c-0.00456,0.390152 -7.12334,8.746097 -14.91893,31.409037c-7.79559,22.66294 -13.29778,23.783119 -6.52056,24.535616c6.77722,0.752496 5.37864,1.110226 9.71284,0.337192c4.3342,-0.773034 9.17849,-2.170959 13.75298,-0.955915c4.57448,1.215043 10.02124,1.563432 10.02124,1.563432c0,0 -2.67826,-137.906682 -2.67826,-137.906682z" stroke-opacity="null" stroke-width="null" fill="#5595d6"/>
  <path filter="url(#svg_42_blur)" stroke="null" id="svg_42" d="m135.299382,113.097245c0,0 116.77242,0 116.77242,0c0,0 -25.80606,40.703743 -49.67666,55.284179c-23.87061,14.580446 -58.06364,26.123297 -58.06803,25.733145c0.00439,0.390152 7.16577,14.911489 12.24816,27.206639c5.08238,12.29514 13.21246,22.18496 10.9413,25.502484c-2.27117,3.317533 -4.07721,4.50782 -9.25057,3.317533c-5.17337,-1.190296 -6.89039,-2.235821 -13.98705,-1.020777c-7.09667,1.215034 -11.56018,1.883486 -11.56018,1.883486c0,0 2.58061,-137.906689 2.58061,-137.906689z" stroke-opacity="null" stroke-width="null" fill="#5595d6"/>
  <ellipse stroke="null" filter="url(#svg_41_blur)" ry="3.015076" rx="139.698506" id="svg_41" cy="388.494902" cx="247.462022" stroke-opacity="null" stroke-width="7" fill="#999999"/>
  <rect stroke="null" filter="url(#svg_30_blur)" rx="6" id="svg_36" height="35.195301" width="273.307225" y="337.982189" x="113.047443" stroke-opacity="null" stroke-width="7" fill="#a6bfb1"/>
  <rect stroke="null" filter="url(#svg_30_blur)" rx="6" id="svg_33" height="77.087613" width="259.117903" y="264.332792" x="121.155633" stroke-opacity="null" stroke-width="7" fill="#a6bfb1"/>
  <line stroke-linecap="null" stroke-linejoin="null" id="svg_3" y2="253.516499" x2="257.083829" y1="105.776803" x1="254.503223" fill-opacity="null" stroke-width="null" stroke="null" fill="none"/>
  <rect stroke="#7f3f00" filter="url(#svg_5_blur)" id="svg_5" height="141.492314" width="5.161212" y="108.506598" x="246.116253" stroke-width="NaN" fill="#7f3f00"/>
  <path filter="url(#svg_6_blur)" id="svg_6" d="m131.279281,107.067097c0,0 116.77242,0 116.77242,0c0,0 -25.80606,43.22516 -49.67666,58.70879c-23.87061,15.48364 -58.06364,27.74152 -58.06803,27.3272c0.00439,0.41432 7.16577,15.83519 12.24816,28.89197c5.08238,13.05677 13.21246,23.55922 10.9413,27.08225c-2.27117,3.52304 -4.07721,4.78706 -9.25057,3.52304c-5.17337,-1.26403 -6.89039,-2.37432 -13.98705,-1.08401c-7.09667,1.2903 -11.56018,2.00016 -11.56018,2.00016c0,0 2.58061,-146.4494 2.58061,-146.4494z" stroke-opacity="null" stroke-width="null" stroke="null" fill="#aad4ff"/>
  <path filter="url(#svg_7_blur)" stroke="null" id="svg_7" d="m370.067439,107.114118c0,0 -121.19081,0 -121.19081,0c0,0 26.7825,43.22516 51.55631,58.70879c24.77382,15.48364 60.26063,27.74152 60.26519,27.3272c-0.00456,0.41432 -7.12334,9.28788 -14.91893,33.35469c-7.79559,24.06681 -13.29778,25.25638 -6.52056,26.05549c6.77722,0.79911 5.37864,1.179 9.71284,0.35808c4.3342,-0.82092 9.17849,-2.30544 13.75298,-1.01513c4.57448,1.29031 10.02124,1.66028 10.02124,1.66028c0,0 -2.67826,-146.4494 -2.67826,-146.4494z" stroke-opacity="null" stroke-width="null" fill="#aad4ff"/>
  <path stroke="null" filter="url(#svg_8_blur)" id="svg_8" d="m132.017642,107.601492c0,0 235.783486,0.93459 235.783486,0.93459c0,0 0.461423,23.83195 0.461423,23.83195c0,0 -5.998405,-5.60752 -13.381067,-5.60752c-7.382652,0 -17.533801,6.07481 -25.839279,6.07481c-8.305488,0 -8.305488,-4.67293 -17.072388,-4.67293c-8.7669,0 -7.844075,7.47669 -18.456636,7.47669c-10.612561,0 -17.072388,-7.47669 -25.377866,-7.47669c-8.305488,0 -11.535396,7.47669 -18.456636,7.47669c-6.92124,0 -13.381057,-8.87857 -20.763719,-8.87857c-7.382652,0 -9.228313,7.94398 -17.533801,7.94398c-8.305478,0 -16.149553,-6.5421 -23.532205,-6.5421c-7.382652,0 -19.840884,10.28045 -25.839289,10.28045c-5.998405,0 -14.303892,-5.60752 -17.533801,-5.60752c-3.229909,0 -12.919644,3.73835 -12.919644,3.73835c0,0 0.461423,-28.97218 0.461423,-28.97218z" stroke-opacity="null" stroke-width="null" fill="#5595d6"/>
  <path filter="url(#svg_11_blur)" stroke="null" id="svg_11" d="m131.018491,105.591442c0,0 238.78681,0.849627 238.78681,0.849627c0,0 0.4673,21.66541 0.4673,21.66541c0,0 -6.07481,-5.097746 -13.55151,-5.097746c-7.47669,0 -17.75714,5.522555 -26.16841,5.522555c-8.41128,0 -8.41128,-4.248118 -17.28985,-4.248118c-8.87857,0 -7.94399,6.796991 -18.69173,6.796991c-10.74774,0 -17.28985,-6.796991 -25.70112,-6.796991c-8.41128,0 -11.68233,6.796991 -18.69173,6.796991c-7.0094,0 -13.5515,-8.071428 -21.0282,-8.071428c-7.47669,0 -9.34586,7.2218 -17.75714,7.2218c-8.41127,0 -16.35526,-5.947364 -23.83195,-5.947364c-7.47669,0 -20.09361,9.345864 -26.16842,9.345864c-6.07481,0 -14.48609,-5.097746 -17.75714,-5.097746c-3.27105,0 -13.08421,3.3985 -13.08421,3.3985c0,0 0.4673,-26.338346 0.4673,-26.338346z" stroke-opacity="null" stroke-width="null" fill="#aad4ff"/>
  <path filter="url(#svg_13_blur)" stroke="null" id="svg_13" d="m133.19803,193.660411c3.29691,-0.11026 1.94366,-0.77178 3.55298,-0.77178c1.60932,0 1.44483,-0.88202 3.27645,0.22051c1.83162,1.10254 1.77916,-0.11025 1.68758,1.76405c-0.09158,1.87431 -1.28213,0.88203 -3.29691,1.54355c-2.01477,0.66152 -2.38109,0.11026 -4.02955,0c-1.64845,-0.11025 -4.21271,0.33076 -4.21271,0.33076c0,0 -0.09158,-2.75633 -0.09158,-2.75633c0,0 -0.18316,-0.22051 3.11374,-0.33076z" stroke-opacity="null" stroke-width="null" fill="#37638e"/>
  <path filter="url(#svg_14_blur)" stroke="null" id="svg_14" d="m368.430289,193.659993c-3.40564,-0.11026 -0.1421,-0.89616 -1.80449,-0.89616c-1.66239,0 -3.35815,-0.75764 -5.25017,0.34489c-1.89203,1.10254 -1.83784,-0.11025 -1.74324,1.76405c0.0946,1.87431 1.32442,0.88203 3.40564,1.54355c2.08122,0.66152 2.45962,0.11026 4.16244,0c1.70282,-0.11025 4.35164,0.33076 4.35164,0.33076c0,0 0.0946,-2.75633 0.0946,-2.75633c0,0 0.1892,-0.22051 -3.21642,-0.33076z" stroke-opacity="null" stroke-width="null" fill="#37638e"/>
  <rect id="svg_28" height="0" width="8.839692" y="348.979553" x="323.696849" stroke-opacity="null" stroke-width="7" stroke="null" fill="#b8d6c6"/>
  <rect stroke="null" filter="url(#svg_30_blur)" rx="6" id="svg_30" height="66.952362" width="259.117903" y="267.7112" x="121.155633" stroke-opacity="null" stroke-width="7" fill="#b8d6c6"/>
  <path filter="url(#svg_31_blur)" stroke="null" id="svg_31" d="m126.546991,368.876923c0,-1.68833 10.52631,-1.26625 10.52631,-1.26625c0,0 -4.04858,19.83784 -4.29149,19.66901c0.24291,0.16883 -2.99595,0.16883 -3.23886,0c0.24291,0.16883 -2.99596,-16.71444 -2.99596,-18.40276z" stroke-opacity="null" stroke-width="7" fill="#7f3f00"/>
  <path filter="url(#svg_32_blur)" stroke="null" id="svg_32" d="m374.319978,369.010945c0,-1.68832 -9.31173,-1.26624 -9.31173,-1.26624c0,0 3.581434,19.83784 3.796316,19.66901c-0.214882,0.16883 2.650262,0.16883 2.865144,0c-0.214882,0.16883 2.650271,-16.71444 2.650271,-18.40277z" stroke-opacity="null" stroke-width="7" fill="#7f3f00"/>
  <rect filter="url(#svg_27_blur)" rx="6" stroke="null" id="svg_27" height="33.477679" width="271.263637" y="337.491813" x="114.273053" stroke-opacity="null" stroke-width="7" fill="#b8d6c6"/>
  <path filter="url(#svg_39_blur)" stroke="null" id="svg_37" d="m149.627032,293.758225c2.49358,-0.355187 1.448943,1.56329 8.652615,1.56329c7.203676,0 21.725696,0.981294 24.496339,-0.084267c2.770643,-1.065561 4.808861,-2.189397 6.471247,-1.123836c1.662385,1.065561 0.50308,7.814111 1.611338,11.721164c1.108258,3.907053 -2.592345,15.335247 0.732425,21.373422c3.324774,6.038176 0.981011,9.172643 0.788262,9.018304c0.192749,0.154339 -5.606365,-1.013603 -8.654072,-1.013603c-3.047711,0 -1.681626,0.812755 -9.162365,1.167942c-7.480735,0.355187 -22.996341,0.355187 -23.18909,0.200848c0.192749,0.154339 -3.437567,-0.746625 -2.052245,-6.429613c1.385322,-5.682989 0.047718,-12.845004 0.047718,-18.527992c0,-5.682989 -2.235753,-17.510471 0.257827,-17.865658z" stroke-opacity="null" stroke-width="7" fill="#445a70"/>
  <path stroke="null" filter="url(#svg_40_blur)" transform="rotate(-90 201.32720947265628,321.3929138183594) " id="svg_38" d="m187.801632,306.977353c1.769507,-0.252052 3.43372,-0.494332 8.545627,-0.494332c5.111906,0 10.319243,-0.200008 12.285366,-0.956156c1.966116,-0.756148 6.104835,0.946392 7.284502,1.70254c1.179674,0.756148 0.356998,5.54509 1.143448,8.317631c0.786449,2.772541 0.660108,8.190715 0.519751,15.167118c-0.140357,6.976404 0.99791,0.712932 -0.402684,4.669107c-1.400594,3.956175 -3.016369,1.01123 -5.179093,1.01123c-2.162732,0 -1.193327,0.576755 -6.501849,0.828807c-5.308515,0.252045 -16.318783,0.252045 -16.455564,0.142521c0.13678,0.109524 -5.131726,-0.145196 -4.148668,-4.17799c0.983058,-4.032793 0.803104,-9.49976 0.803104,-13.532553c0,-4.032793 0.336554,-12.425872 2.106061,-12.677923z" stroke-opacity="null" stroke-width="7" fill="#898985"/>
  <path filter="url(#svg_39_blur)" stroke="null" id="svg_39" d="m147.367142,291.498332c2.49358,-0.35519 1.44894,1.56329 8.65261,1.56329c7.20368,0 21.7257,0.98129 24.49634,-0.08427c2.77064,-1.06556 4.80886,-2.18939 6.47125,-1.12383c1.66238,1.06556 0.50308,7.81411 1.61134,11.72116c1.10825,3.90705 -2.59235,15.33525 0.73242,21.37342c3.32478,6.03818 0.98101,9.17265 0.78826,9.01831c0.19275,0.15434 -5.60636,-1.01361 -8.65407,-1.01361c-3.04771,0 -1.68162,0.81276 -9.16236,1.16795c-7.48074,0.35518 -22.99634,0.35518 -23.18909,0.20084c0.19275,0.15434 -3.43757,-0.74662 -2.05225,-6.42961c1.38532,-5.68299 0.04772,-12.845 0.04772,-18.52799c0,-5.68299 -2.23575,-17.51047 0.25783,-17.86566z" stroke-opacity="null" stroke-width="7" fill="#50779e"/>
  <path stroke="null" filter="url(#svg_40_blur)" transform="rotate(-89.98348236083984 199.69720458984372,319.49563598632807) " id="svg_40" d="m186.169881,305.078183c1.769737,-0.252084 3.434166,-0.494396 8.546736,-0.494396c5.112569,0 10.320582,-0.200034 12.28696,-0.95628c1.966371,-0.756246 6.105627,0.946515 7.285447,1.702761c1.179827,0.756246 0.357045,5.545809 1.143596,8.31871c0.786551,2.772901 0.660193,8.191777 0.519818,15.169087c-0.140375,6.977309 0.99804,0.713025 -0.402736,4.669713c-1.400776,3.956688 -3.01676,1.011361 -5.179765,1.011361c-2.163013,0 -1.193482,0.57683 -6.502693,0.828914c-5.309204,0.252077 -16.320901,0.252077 -16.457699,0.14254c0.136798,0.109538 -5.132392,-0.145215 -4.149206,-4.178532c0.983186,-4.033317 0.803208,-9.500993 0.803208,-13.53431c0,-4.033317 0.336598,-12.427484 2.106335,-12.679569z" stroke-opacity="null" stroke-width="7" fill="#fffff2"/>
  <path filter="url(#svg_45_blur)" stroke="null" id="svg_45" d="m367.998321,192.796067c-3.40564,-0.11026 -0.3863,-0.16356 -2.04869,-0.16356c-1.66239,0 -3.35815,-0.87974 -5.00597,-0.38771c-1.64782,0.49203 -1.83784,-0.11025 -1.74324,1.76405c0.0946,1.87431 1.32442,0.88203 3.40564,1.54355c2.08122,0.66152 2.45962,0.11026 4.16244,0c1.70282,-0.11025 4.35164,0.33076 4.35164,0.33076c0,0 0.0946,-2.75633 0.0946,-2.75633c0,0 0.1892,-0.22051 -3.21642,-0.33076z" stroke-opacity="null" stroke-width="null" fill="#5595d6"/>
  <path filter="url(#svg_46_blur)" stroke="null" id="svg_46" d="m133.198031,192.650307c3.29691,-0.11026 1.94366,-0.77178 3.55298,-0.77178c1.60932,0 -0.48133,-0.23997 3.27645,0.22051c3.75778,0.46048 1.77916,-0.11025 1.68758,1.76405c-0.09158,1.87431 -1.28213,0.88203 -3.29691,1.54355c-2.01477,0.66152 -2.38109,0.11026 -4.02955,0c-1.64845,-0.11025 -4.21271,0.33076 -4.21271,0.33076c0,0 -0.09158,-2.75633 -0.09158,-2.75633c0,0 -0.18316,-0.22051 3.11374,-0.33076z" stroke-opacity="null" stroke-width="null" fill="#508fce"/>
 </g>
</svg>